<mxfile host="app.diagrams.net" modified="2022-04-07T06:02:47.069Z" agent="5.0 (Windows NT 10.0; Win64; x64) AppleWebKit/537.36 (KHTML, like Gecko) Chrome/100.0.4896.75 Safari/537.36" etag="XpJCJb-BgLkjorOrrtT3" version="17.4.0" type="github">
  <diagram id="NTB-_1T0ecYnfgK1fwUM" name="Page-1">
    <mxGraphModel dx="665" dy="384" grid="1" gridSize="10" guides="1" tooltips="1" connect="1" arrows="1" fold="1" page="1" pageScale="1" pageWidth="1169" pageHeight="827" math="0" shadow="0">
      <root>
        <mxCell id="0" />
        <mxCell id="1" parent="0" />
        <mxCell id="YM2_OZTBvlbwgCARhYAU-1" value="Web Application" style="rounded=0;whiteSpace=wrap;html=1;" vertex="1" parent="1">
          <mxGeometry x="120" y="110" width="120" height="60" as="geometry" />
        </mxCell>
        <mxCell id="YM2_OZTBvlbwgCARhYAU-2" value="Mobile Application" style="rounded=0;whiteSpace=wrap;html=1;" vertex="1" parent="1">
          <mxGeometry x="120" y="220" width="120" height="60" as="geometry" />
        </mxCell>
        <mxCell id="YM2_OZTBvlbwgCARhYAU-3" value="" style="endArrow=classic;html=1;rounded=0;" edge="1" parent="1">
          <mxGeometry width="50" height="50" relative="1" as="geometry">
            <mxPoint x="242" y="139.5" as="sourcePoint" />
            <mxPoint x="332" y="139.5" as="targetPoint" />
          </mxGeometry>
        </mxCell>
        <mxCell id="YM2_OZTBvlbwgCARhYAU-4" value="" style="endArrow=classic;html=1;rounded=0;" edge="1" parent="1">
          <mxGeometry width="50" height="50" relative="1" as="geometry">
            <mxPoint x="242" y="250.5" as="sourcePoint" />
            <mxPoint x="332" y="250.5" as="targetPoint" />
          </mxGeometry>
        </mxCell>
        <mxCell id="YM2_OZTBvlbwgCARhYAU-6" value="Web App&amp;nbsp; &amp;nbsp; Gateway&lt;span style=&quot;white-space: pre&quot;&gt;	&lt;/span&gt;" style="rounded=1;whiteSpace=wrap;html=1;" vertex="1" parent="1">
          <mxGeometry x="330" y="110" width="70" height="60" as="geometry" />
        </mxCell>
        <mxCell id="YM2_OZTBvlbwgCARhYAU-7" value="Mobile App Gateway&lt;br&gt;" style="rounded=1;whiteSpace=wrap;html=1;" vertex="1" parent="1">
          <mxGeometry x="330" y="220" width="70" height="60" as="geometry" />
        </mxCell>
        <mxCell id="YM2_OZTBvlbwgCARhYAU-8" value="1st Microservice" style="rounded=0;whiteSpace=wrap;html=1;" vertex="1" parent="1">
          <mxGeometry x="520" y="50" width="120" height="40" as="geometry" />
        </mxCell>
        <mxCell id="YM2_OZTBvlbwgCARhYAU-9" value="2nd Microservice" style="rounded=0;whiteSpace=wrap;html=1;" vertex="1" parent="1">
          <mxGeometry x="520" y="170" width="120" height="40" as="geometry" />
        </mxCell>
        <mxCell id="YM2_OZTBvlbwgCARhYAU-10" value="3rd Microservice" style="rounded=0;whiteSpace=wrap;html=1;" vertex="1" parent="1">
          <mxGeometry x="520" y="270" width="120" height="40" as="geometry" />
        </mxCell>
        <mxCell id="YM2_OZTBvlbwgCARhYAU-11" value="" style="endArrow=classic;html=1;rounded=0;entryX=0;entryY=0.75;entryDx=0;entryDy=0;" edge="1" parent="1">
          <mxGeometry width="50" height="50" relative="1" as="geometry">
            <mxPoint x="400" y="130" as="sourcePoint" />
            <mxPoint x="520" y="69" as="targetPoint" />
          </mxGeometry>
        </mxCell>
        <mxCell id="YM2_OZTBvlbwgCARhYAU-12" value="" style="endArrow=classic;html=1;rounded=0;entryX=0;entryY=0.5;entryDx=0;entryDy=0;" edge="1" parent="1" target="YM2_OZTBvlbwgCARhYAU-9">
          <mxGeometry width="50" height="50" relative="1" as="geometry">
            <mxPoint x="400" y="160" as="sourcePoint" />
            <mxPoint x="520" y="100" as="targetPoint" />
            <Array as="points">
              <mxPoint x="400" y="130" />
            </Array>
          </mxGeometry>
        </mxCell>
        <mxCell id="YM2_OZTBvlbwgCARhYAU-13" value="" style="endArrow=classic;html=1;rounded=0;entryX=0;entryY=0.25;entryDx=0;entryDy=0;" edge="1" parent="1" target="YM2_OZTBvlbwgCARhYAU-10">
          <mxGeometry width="50" height="50" relative="1" as="geometry">
            <mxPoint x="400" y="130" as="sourcePoint" />
            <mxPoint x="500" y="190" as="targetPoint" />
          </mxGeometry>
        </mxCell>
        <mxCell id="YM2_OZTBvlbwgCARhYAU-14" value="" style="endArrow=classic;html=1;rounded=0;entryX=0;entryY=0.75;entryDx=0;entryDy=0;" edge="1" parent="1" target="YM2_OZTBvlbwgCARhYAU-8">
          <mxGeometry width="50" height="50" relative="1" as="geometry">
            <mxPoint x="400" y="240" as="sourcePoint" />
            <mxPoint x="520" y="230" as="targetPoint" />
          </mxGeometry>
        </mxCell>
        <mxCell id="YM2_OZTBvlbwgCARhYAU-15" value="" style="endArrow=classic;html=1;rounded=0;exitX=1;exitY=0.75;exitDx=0;exitDy=0;entryX=0;entryY=0.5;entryDx=0;entryDy=0;" edge="1" parent="1">
          <mxGeometry width="50" height="50" relative="1" as="geometry">
            <mxPoint x="400" y="239" as="sourcePoint" />
            <mxPoint x="520" y="194" as="targetPoint" />
          </mxGeometry>
        </mxCell>
        <mxCell id="YM2_OZTBvlbwgCARhYAU-16" value="" style="endArrow=classic;html=1;rounded=0;exitX=1.045;exitY=0.374;exitDx=0;exitDy=0;entryX=0;entryY=0.5;entryDx=0;entryDy=0;exitPerimeter=0;" edge="1" parent="1" source="YM2_OZTBvlbwgCARhYAU-7" target="YM2_OZTBvlbwgCARhYAU-10">
          <mxGeometry width="50" height="50" relative="1" as="geometry">
            <mxPoint x="410" y="290" as="sourcePoint" />
            <mxPoint x="530" y="245" as="targetPoint" />
          </mxGeometry>
        </mxCell>
      </root>
    </mxGraphModel>
  </diagram>
</mxfile>
